<?xml version="1.0" encoding="utf-8"?>
<svg version="1.1" id="Слой_1" xmlns="http://www.w3.org/2000/svg" xmlns:xlink="http://www.w3.org/1999/xlink" x="0px" y="0px"
	 viewBox="0 0 249.82 233.16" style="enable-background:new 0 0 249.82 233.16;" xml:space="preserve">
<g>
	<polygon points="99.99,99.93 83.33,99.93 83.33,83.27 66.68,83.27 66.68,99.93 50.03,99.93 50.03,116.58 66.68,116.58 66.68,99.93
		83.33,99.93 83.33,116.58 99.99,116.58 99.99,99.93 	"/>
	<polygon points="183.21,99.93 199.86,99.93 199.86,116.58 183.21,116.58 183.21,99.93 166.61,99.93 166.61,116.58 149.95,116.58
		149.95,99.93 166.55,99.93 166.55,83.27 183.21,83.27 183.21,99.93 	"/>
	<path d="M216.52,183.2h16.65v-16.65h16.65v-16.65h-16.65v16.65h-16.65L216.52,183.2h-16.66v16.65h16.66V183.2L216.52,183.2z
		 M199.8,0h16.65v16.65v66.62h16.65V16.65h-16.65H199.8v16.65h-16.65v16.66h-16.6v16.65H83.27V49.97H66.62V33.31V16.65H49.97v16.65
		h16.65h16.65v16.66h83.22V33.31h16.65V16.65h16.65V0L199.8,0z M49.97,0H33.31v16.65h16.65V0L49.97,0z M16.66,83.27h16.65V16.66
		H16.66V83.27L0,83.27v16.66h16.66v16.65H0v16.65h16.66v16.66h16.65v-16.66H16.66v-16.65h16.65V99.93H16.66V83.27L16.66,83.27z
		 M233.17,99.93h16.65V83.27h-16.65V99.93h-16.65v16.65h16.65v16.65h-16.65v16.66h16.65v-16.66h16.65v-16.65h-16.65V99.93
		L233.17,99.93z M0,166.55h16.66v16.65h16.65v16.65h16.65v16.65h16.65v-16.65H49.97V183.2H33.31v-16.65H16.66v-16.65H0V166.55
		L0,166.55z M66.62,233.16H183.2v-16.65H66.62V233.16L66.62,233.16z M183.2,216.51h16.65v-16.65H183.2V216.51L183.2,216.51z"/>
	<path d="M99.93,149.89h16.65v16.65h16.65v16.65h33.25v-16.65h16.65v-16.65h-16.65v16.65h-33.25v-16.65h16.66v-16.65H99.93V149.89
		L99.93,149.89z M116.58,183.2H83.27v-16.65H66.62v-16.65h16.65v16.65h33.31V183.2L116.58,183.2z"/>
</g>
</svg>
